<?xml version="1.0" encoding="UTF-8"?>
<svg xmlns="http://www.w3.org/2000/svg" xmlns:xlink="http://www.w3.org/1999/xlink" width="50pt" height="50pt" viewBox="0 0 50 50" version="1.1">
<g id="surface2671435">
<path style=" stroke:none;fill-rule:nonzero;fill:rgb(22.745098%,30.588235%,85.882353%);fill-opacity:1;" d="M 13 2 C 12.445312 2 12 2.449219 12 3 L 12 47 C 12 47.359375 12.191406 47.6875 12.503906 47.867188 C 12.8125 48.046875 13.195312 48.042969 13.503906 47.863281 L 25 41.160156 L 36.496094 47.863281 C 36.652344 47.953125 36.824219 48 37 48 C 37.171875 48 37.34375 47.957031 37.496094 47.867188 C 37.808594 47.6875 38 47.359375 38 47 L 38 33.769531 C 41.183594 34.417969 44.625 33.515625 47.082031 31.058594 C 50.972656 27.167969 50.972656 20.808594 47.082031 16.917969 C 44.625 14.460938 41.183594 13.558594 38 14.207031 L 38 3 C 38 2.449219 37.554688 2 37 2 Z M 40.011719 15.996094 C 42.0625 15.996094 44.113281 16.773438 45.667969 18.332031 C 48.78125 21.441406 48.78125 26.535156 45.667969 29.644531 C 42.558594 32.753906 37.464844 32.757812 34.355469 29.644531 C 31.246094 26.53125 31.242188 21.441406 34.355469 18.332031 C 35.910156 16.773438 37.960938 15.996094 40.011719 15.996094 Z M 36.546875 19.496094 C 36.300781 19.496094 36.050781 19.605469 35.839844 19.816406 C 35.414062 20.242188 35.414062 20.804688 35.839844 21.230469 L 38.597656 23.988281 L 35.839844 26.746094 C 35.414062 27.171875 35.414062 27.734375 35.839844 28.160156 C 36.265625 28.585938 36.828125 28.585938 37.253906 28.160156 L 40.011719 25.402344 L 42.769531 28.160156 C 43.195312 28.585938 43.757812 28.585938 44.183594 28.160156 C 44.609375 27.734375 44.609375 27.171875 44.183594 26.746094 L 41.425781 23.988281 L 44.183594 21.230469 C 44.609375 20.804688 44.609375 20.242188 44.183594 19.816406 C 43.757812 19.390625 43.195312 19.390625 42.769531 19.816406 L 40.011719 22.574219 L 37.253906 19.816406 C 37.042969 19.605469 36.792969 19.496094 36.546875 19.496094 Z M 36.546875 19.496094 "/>
</g>
</svg>
