<?xml version="1.0" encoding="UTF-8"?>
<svg xmlns="http://www.w3.org/2000/svg" xmlns:xlink="http://www.w3.org/1999/xlink" width="256pt" height="256pt" viewBox="0 0 256 256" version="1.1">
<g id="surface2024159">
<path style=" stroke:none;fill-rule:nonzero;fill:rgb(20.392157%,59.607843%,85.882353%);fill-opacity:1;" d="M 181.640625 223.320312 L 130.359375 185.71875 C 128.953125 184.691406 127.046875 184.691406 125.640625 185.71875 L 74.359375 223.320312 C 73.128906 224.21875 71.496094 224.339844 70.148438 223.636719 C 68.796875 222.933594 67.964844 221.523438 68 220 L 68 32 C 68 29.789062 69.789062 28 72 28 L 184 28 C 186.210938 28 188 29.789062 188 32 L 188 220 C 188.035156 221.523438 187.203125 222.933594 185.851562 223.636719 C 184.503906 224.339844 182.871094 224.21875 181.640625 223.320312 Z M 181.640625 223.320312 "/>
<path style=" stroke:none;fill-rule:nonzero;fill:rgb(20.392157%,59.607843%,85.882353%);fill-opacity:1;" d="M 181.640625 195.320312 L 135.078125 161.199219 C 130.855469 158.097656 125.105469 158.097656 120.878906 161.199219 L 74.359375 195.320312 C 73.128906 196.21875 71.496094 196.339844 70.148438 195.636719 C 68.796875 194.933594 67.964844 193.523438 68 192 L 68 220 C 67.996094 221.507812 68.839844 222.890625 70.183594 223.574219 C 71.527344 224.257812 73.140625 224.128906 74.359375 223.238281 L 125.640625 185.640625 C 127.046875 184.613281 128.953125 184.613281 130.359375 185.640625 L 181.640625 223.238281 C 182.859375 224.128906 184.472656 224.257812 185.816406 223.574219 C 187.160156 222.890625 188.003906 221.507812 188 220 L 188 192 C 188.035156 193.523438 187.203125 194.933594 185.851562 195.636719 C 184.503906 196.339844 182.871094 196.21875 181.640625 195.320312 Z M 181.640625 195.320312 "/>
<path style=" stroke:none;fill-rule:nonzero;fill:rgb(20.392157%,59.607843%,85.882353%);fill-opacity:1;" d="M 184 28 L 72 28 C 69.789062 28 68 29.789062 68 32 L 68 52 C 68 49.789062 69.789062 48 72 48 L 184 48 C 186.210938 48 188 49.789062 188 52 L 188 32 C 188 29.789062 186.210938 28 184 28 Z M 184 28 "/>
<path style=" stroke:none;fill-rule:nonzero;fill:rgb(100%,100%,100%);fill-opacity:1;" d="M 180 24 L 76 24 C 69.371094 24 64 29.371094 64 36 L 64 220 C 64.007812 223.007812 65.703125 225.757812 68.386719 227.117188 C 71.070312 228.476562 74.289062 228.214844 76.71875 226.441406 L 125.601562 190.441406 C 127.003906 189.414062 128.914062 189.414062 130.320312 190.441406 L 179.238281 226.441406 C 181.667969 228.238281 184.90625 228.515625 187.605469 227.152344 C 190.304688 225.789062 192.003906 223.023438 192 220 L 192 36 C 192 29.371094 186.628906 24 180 24 Z M 184 220 L 135.078125 184 C 130.855469 180.898438 125.105469 180.898438 120.878906 184 L 72 220 L 72 36 C 72 33.789062 73.789062 32 76 32 L 180 32 C 182.210938 32 184 33.789062 184 36 Z M 184 220 "/>
<path style=" stroke:none;fill-rule:nonzero;fill:rgb(100%,100%,100%);fill-opacity:1;" d="M 148 40 C 145.789062 40 144 41.789062 144 44 L 144 52 C 144 54.210938 145.789062 56 148 56 C 150.210938 56 152 54.210938 152 52 L 152 44 C 152 41.789062 150.210938 40 148 40 Z M 168 40 C 165.789062 40 164 41.789062 164 44 L 164 52 C 164 54.210938 165.789062 56 168 56 C 170.210938 56 172 54.210938 172 52 L 172 44 C 172 41.789062 170.210938 40 168 40 Z M 88 40 C 85.789062 40 84 41.789062 84 44 L 84 52 C 84 54.210938 85.789062 56 88 56 C 90.210938 56 92 54.210938 92 52 L 92 44 C 92 41.789062 90.210938 40 88 40 Z M 108 40 C 105.789062 40 104 41.789062 104 44 L 104 52 C 104 54.210938 105.789062 56 108 56 C 110.210938 56 112 54.210938 112 52 L 112 44 C 112 41.789062 110.210938 40 108 40 Z M 128 40 C 125.789062 40 124 41.789062 124 44 L 124 52 C 124 54.210938 125.789062 56 128 56 C 130.210938 56 132 54.210938 132 52 L 132 44 C 132 41.789062 130.210938 40 128 40 Z M 128 40 "/>
</g>
</svg>
